<?xml version="1.0" encoding="UTF-8"?> <svg xmlns:inkscape="http://www.inkscape.org/namespaces/inkscape" xmlns:sodipodi="http://sodipodi.sourceforge.net/DTD/sodipodi-0.dtd" xmlns="http://www.w3.org/2000/svg" xmlns:svg="http://www.w3.org/2000/svg" width="143.88889" height="20" version="1.1" id="svg10" sodipodi:docname="logo.svg" inkscape:version="1.2.2 (732a01da63, 2022-12-09)"><defs id="defs14"></defs><g fill-rule="evenodd" id="g8" transform="matrix(0.55555556,0,0,0.55555556,-0.27777778,0)"><path fill="#233b74" d="M 113.167,4.264 102.918,16.304 114.069,28.882 V 29.204 H 107.284 L 97.937,18.49 V 29.204 H 92.308 V 4.12 H 97.938 V 14.476 L 106.346,4.12 H 113.167 Z M 139.474,11.788 131.68,21.535 H 130.669 L 123.127,11.717 V 29.24 H 117.497 V 4.156 H 123.956 L 131.319,13.796 138.717,4.156 H 145.104 V 29.24 H 139.474 Z M 166.611,24.33 H 173.54 C 176.067,24.33 177.257,23.22 177.257,21.464 177.257,19.708 175.959,18.525 173.468,18.525 H 166.611 Z M 166.611,13.867 H 173.468 C 175.67,13.867 176.752,12.971 176.752,11.502 176.752,10.032 175.67,8.958 173.54,8.958 H 166.611 Z M 173.54,4.12 C 178.34,4.12 182.309,6.27 182.309,10.929 182.309,13.007 181.371,14.942 178.954,16.053 182.165,17.2 183.5,20.425 182.96,23.327 182.202,27.377 178.809,29.205 173.756,29.205 H 161.089 V 4.12 Z M 207.463,29.204 H 188.228 V 4.12 H 206.957 V 9.244 H 193.749 V 14.082 H 206.199 V 18.992 H 193.749 V 24.044 H 207.463 Z M 218.288,9.1 H 210.601 V 4.12 H 231.569 V 9.1 H 223.881 V 29.204 H 218.288 Z M 245.101,9.782 249.433,19.959 H 240.735 Z M 242.033,4.12 230.702,29.204 H 236.765 L 238.605,24.904 H 251.562 L 253.401,29.204 H 259.5 L 248.169,4.12 Z" id="path2"></path><path fill="#ffcc00" d="M 25.002,0 0.5,13.651 8.416,18.478 25.002,9.22 40.986,18.313 49.124,13.723 Z" id="path4"></path><path fill="#233b74" d="M 41.583,26.78 26.875,18.4 V 27.62 L 41.583,36 70.652,19.608 V 11.058 Z" id="path6"></path></g></svg> 