<?xml version="1.0" encoding="UTF-8"?> <svg xmlns="http://www.w3.org/2000/svg" width="111.763" height="90.108" viewBox="0 0 111.763 90.108"><g transform="translate(0 0.108)"><path d="M497.949,15.568V17.9h.854a7.876,7.876,0,0,0,1.867-.14,1,1,0,0,0,.55-.395,1.042,1.042,0,0,0,.216-.622,1.1,1.1,0,0,0-.367-.829,3.065,3.065,0,0,0-1.843-.344Zm-.872-.712h2.616a3.18,3.18,0,0,1,2.035.517,1.621,1.621,0,0,1,.616,1.289,1.739,1.739,0,0,1-.643,1.367,2.715,2.715,0,0,1-1.365.526,2.571,2.571,0,0,1,.571.341,4.462,4.462,0,0,1,.52.631,9.031,9.031,0,0,1,.538.8l.686,1.22h-1.073l-.653-1.107a5.255,5.255,0,0,0-1.139-1.541,2.436,2.436,0,0,0-1.284-.254h-.553v2.9h-.872Zm7.874,3.569a5.554,5.554,0,1,0-9.482,3.907,5.554,5.554,0,0,0,9.482-3.907Zm.695,0a6.236,6.236,0,0,1-6.244,6.222,6.04,6.04,0,0,1-4.422-1.825,5.978,5.978,0,0,1-1.831-4.4,5.98,5.98,0,0,1,1.831-4.4,6.272,6.272,0,0,1,8.839,0A5.977,5.977,0,0,1,505.645,18.425Z" transform="translate(-393.99 -12.203)" fill="#111" fill-rule="evenodd"></path><path d="M497.949,15.568V17.9h.854a7.876,7.876,0,0,0,1.867-.14,1,1,0,0,0,.55-.395,1.042,1.042,0,0,0,.216-.622,1.1,1.1,0,0,0-.367-.829,3.065,3.065,0,0,0-1.843-.344Zm-.872-.712h2.616a3.18,3.18,0,0,1,2.035.517,1.621,1.621,0,0,1,.616,1.289,1.739,1.739,0,0,1-.643,1.367,2.715,2.715,0,0,1-1.365.526,2.571,2.571,0,0,1,.571.341,4.462,4.462,0,0,1,.52.631,9.031,9.031,0,0,1,.538.8l.686,1.22h-1.073l-.653-1.107a5.255,5.255,0,0,0-1.139-1.541,2.436,2.436,0,0,0-1.284-.254h-.553v2.9h-.872Zm7.874,3.569a5.554,5.554,0,1,0-9.482,3.907,5.554,5.554,0,0,0,9.482-3.907Zm.695,0a6.236,6.236,0,0,1-6.244,6.222,6.04,6.04,0,0,1-4.422-1.825,5.978,5.978,0,0,1-1.831-4.4,5.98,5.98,0,0,1,1.831-4.4,6.272,6.272,0,0,1,8.839,0A5.977,5.977,0,0,1,505.645,18.425Z" transform="translate(-393.99 -12.203)" fill="none" stroke="#111" stroke-miterlimit="22.926" stroke-width="0.215"></path><rect width="97.164" height="19.073" transform="translate(0 70.927)" fill="#162088"></rect><path d="M371,12.954H322.944l22.581,21.188L371,57.485Z" transform="translate(-274.04 -12.734)" fill="#162088" fill-rule="evenodd"></path><path d="M158.264,12.954h48.487L183.97,34.142,158.264,57.485Z" transform="translate(-157.983 -12.734)" fill="#d21113" fill-rule="evenodd"></path><path d="M192.443,187.844a1.962,1.962,0,1,1-2.082,1.941,2.015,2.015,0,0,1,2.082-1.941m54.82-.042a1.954,1.954,0,1,1-.034,3.9,1.954,1.954,0,1,1,.034-3.9Zm-70.291-13.5,5.825.05-.021,4.223,9.1.175,4.809-.023,8.94-.019,2.954,9.195,2.953-9.288,16.687-.017,2.937,9.291,2.953-9.256c4.083.019,8.085-.027,12.184.009l4.423-.09a3.913,3.913,0,0,1,4.154,4.805l-.131,11.4-10.458.055c-2.437.059-4.907.182-5.1-3.609.025-1.012.05-2.039.075-3.05.179-1.99,1.477-2.878,3.561-3.037l6.132,0c0-.514-.007-1.028,0-1.542l-9.828.06-3.777,11.224-8.7-.011-3.887-11.387-.083,11.385-6.084-.02V183.844L212.8,194.828l-8.714-.011-3.744-11.064-.113,11.127q-6,0-12.006-.023c-1.871-.08-3.562-.5-4.007-3.182.009-.963.017-1.943.025-2.906.02-2.344,1.225-3.57,3.631-3.694l6.309.071v-1.7l-11.49-.035-.066,11.353-6.068-.02.1-11.352-12.216-.009-.015,1.734c1.839.032,3.679.048,5.535.08,3-.279,4.122,1,4.364,2.976-.01,1.092-.035,2.184-.061,3.291-.365,2.968-2.514,3.383-5.031,3.265l-10.989-.095.009-4.753,9.94.118.013-1.509c-1.952-.049-3.921-.082-5.873-.115-1.807.016-3.223-.493-3.757-2.168-.035-1.494-.087-2.988-.123-4.481.212-2.054,1.24-3.394,4.078-3.161l14.41.092Z" transform="translate(-157.964 -126.678)" fill="#111" fill-rule="evenodd"></path><rect width="10.199" height="2.489" transform="translate(86.584 47.066)" fill="#111"></rect><path d="M354.615,150.127a4.838,4.838,0,1,1-4.852,4.828,4.857,4.857,0,0,1,4.852-4.828" transform="translate(-292.94 -109.605)" fill="#d21113" fill-rule="evenodd"></path></g></svg> 